<?xml version="1.0" encoding="UTF-8"?>
<svg id="Layer_1" xmlns="http://www.w3.org/2000/svg" version="1.1" viewBox="0 0 595.3 841.9">
  <!-- Generator: Adobe Illustrator 29.1.0, SVG Export Plug-In . SVG Version: 2.1.0 Build 142)  -->
  <polygon points="339.9 421 344.2 400.8 335 389.1 311.8 389.1 297.5 400.8 293 422.6 298.9 421 287.7 447.4 292.3 425.6 286.3 427.2 297.5 400.8 283.7 388.3 286 377.7 287.3 376.6 288.6 376.6 289.4 377.7 287 389 308.4 389 312.6 369 303.4 357.3 280.8 357.3 266.5 369 260.1 399 281.2 417.9 278.7 430 277.2 431.2 275.6 431.2 274.7 430 277.3 417.3 256 417.3 251.5 438.8 260.7 450.6 283.9 450.6 287.7 447.4 282.8 470.6 292 482.3 306.3 482.3 311.8 477.8 313.3 474.6 314.9 474.6 313.4 477.8 312.5 482.3 326.9 482.3 338.7 426.4 315.4 426.4 311.8 443.7 314.3 443.7 310.5 461.7 308.9 463 307 463 305.9 461.7 317 409.7 318.6 408.4 319.9 408.4 321 409.7 318.6 421 339.9 421" fill="#fff"/>
  <g>
    <g>
      <polygon points="179.6 446.9 177.2 458 221.3 435.5 184.7 445.3 187.1 434.1 143 456.7 179.6 446.9" fill="#fff"/>
      <polygon points="410.5 445.3 408.1 434.1 452.2 456.7 415.7 446.9 418 458 374 435.5 410.5 445.3" fill="#fff"/>
    </g>
    <g>
      <g>
        <path d="M202.9,400.4l-14.9-5.6,3.2-8.6,11.3,4.2,4.2-1.8,2-5.3-2-4.1-11.7-4.4-24.2,13.3-18.4-6.9-4.5-10,5.1-13.5,10-4.5,13.8,5.2-3.2,8.6-10.2-3.8-4.1,1.9-1.9,4.9,1.9,4.1,10.6,4,24.2-13.3,19.7,7.4,4.5,10-5.2,13.9-10,4.5Z" fill="#fff"/>
        <path d="M211.6,296.2l18.3,21-.8,10.9-10.1,8.8,17.2,19.8-6.9,6-45.7-52.5,17-14.8,10.9.8ZM207.3,305.2l-4.6-.3-6.6,5.7,15.9,18.2-1.7,4.3.3.3,9.7-8.4.3-4.6-13.2-15.2Z" fill="#fff"/>
        <path d="M280.7,270.2l11.5,52.9-5.9,9.2-14.5,3.2-9.1-5.9-11.5-52.9,5.8-9.2,14.5-3.2,9.2,5.9ZM268.7,273.4l-5.4,1.2-2.4,3.9,9.9,45.3,3.8,2.5,5.4-1.2,2.4-3.9-9.9-45.3-3.8-2.5Z" fill="#fff"/>
        <path d="M332,308.8l-5.6-1.7-8.2,27-8.8-2.6,20.2-66.7,21.6,6.5,5.2,9.7-7.5,24.8-8.3,4.5-1,30.4-9-2.7,1.3-29.1ZM324.8,298.3l12.3,3.7,4.1-2.2,5.4-17.7-2.2-4.1-8.4-2.5-6.6,21.7-4.5.7v.4Z" fill="#fff"/>
        <path d="M409.4,319.9l-6.2-5.8-42,44.6-6.7-6.3,42-44.6-6.2-5.8,5.7-6.1,19,17.9-5.7,6.1Z" fill="#fff"/>
        <path d="M443.4,381.4l-50.7,19-10-4.5-5.2-13.9,4.6-9.9,50.7-19,10,4.5,5.2,13.9-4.5,10ZM438.6,370.1l-2-5.2-4.2-1.8-43.4,16.3-2,4.1,2,5.2,4.2,1.8,43.4-16.3,2-4.1Z" fill="#fff"/>
      </g>
      <g>
        <path d="M223.8,500.8l7.1-7v-4.6c.1,0-3.8-4-3.8-4h-4.6s-33.1,32.5-33.1,32.5v4.6c-.1,0,3.8,4.1,3.8,4.1h4.6s14.2-13.9,14.2-13.9l-4.3-4.4,5.5-5.4,10.6,10.8-28.1,27.5-4.5-4.5,2.6-2.6,1.8-1-.8-.8-1.7,1.1h-5.3c0-.1-8-8.3-8-8.3l.2-10.9,38.7-37.9h10.9s10.4,10.6,10.4,10.6v11c-.1,0-10,9.7-10,9.7l-6.4-6.5Z" fill="#fff"/>
        <path d="M258,553.4l-10.8-3.7-7.8,16.7-8.8-3,31.7-62.8,13.8,4.7-13,69.1-9.2-3.1,4-18ZM246.5,541.3l13,4.4,5.9-28.7,1.8-5.2-2-.7-1.8,5.2-12,24.1-4.8.5v.4Z" fill="#fff"/>
        <path d="M296.2,508.3l9.1-.8,5,58.6-3.9,2.4v.4s16.8-1.4,16.8-1.4l.7,8.3-21.8,1.9-6-69.4Z" fill="#fff"/>
        <path d="M329.7,501.9l8.3-3.8,28.6,63.5-8.3,3.8-28.6-63.5Z" fill="#fff"/>
        <path d="M401.2,513.3l-8,8.2,11.7,14.2-6.5,6.6-42.8-55.8,10.2-10.4,56.7,41.6-6.8,7-14.5-11.4ZM385.4,518.4l9.6-9.8-23.3-17.7-3.9-3.8-1.5,1.5,3.9,3.8,16.5,21.2-1.6,4.5.3.3Z" fill="#fff"/>
      </g>
    </g>
  </g>
</svg>